<svg xmlns="http://www.w3.org/2000/svg" width="1200" height="1600" viewBox="0 0 1200 1600">
  <defs>
    <style>
      /* Fonts are bundled in brand/fonts/ so the brandboard renders anywhere —
         it must not depend on fonts installed on one particular machine. */
      @font-face {
        font-family: 'Space Grotesk';
        src: url('fonts/space-grotesk-400.ttf') format('truetype');
        font-weight: 400;
      }
      @font-face {
        font-family: 'Space Grotesk';
        src: url('fonts/space-grotesk-500.ttf') format('truetype');
        font-weight: 500;
      }
      @font-face {
        font-family: 'Space Grotesk';
        src: url('fonts/space-grotesk-700.ttf') format('truetype');
        font-weight: 700;
      }
    </style>
  </defs>
  
  <!-- Background -->
  <!-- Background — a lightened Deep, NOT a neutral grey.
       It must not be Deep (#0F2A2E) itself: the DEEP swatch in section 02 and the
       two Deep demo cards (05 "Dark background", 06 "Banner") sit on this surface,
       and a Deep background made all three invisible — the Deep swatch vanished
       entirely.

       #1A464C is Deep taken to a higher lightness at the SAME hue (188°) and the
       same saturation, so the page stays inside the brand's colour family instead
       of introducing a foreign grey. It measures identically to a #404040 neutral:

         vs Deep   1.46:1      vs Teal (nearest palette colour)  1.43:1
         vs Moss   2.14:1      Mist labels on it                9.42:1

       Same luminance as #404040, so the legibility is the same — but the hue
       belongs to the brand.

       Do not darken this towards Deep. Below roughly L=18% the separation from
       Deep drops under 1.30:1 and the DEEP swatch starts to disappear again. -->
  <rect width="1200" height="1600" fill="#1A464C"/>
  
  <!-- Title -->
  <text x="600" y="50" text-anchor="middle" font-family="Space Grotesk" font-size="16" font-weight="500" letter-spacing="4" fill="#F2F5EE">BANDUA STUDIO</text>
  <text x="600" y="75" text-anchor="middle" font-family="Space Grotesk" font-size="11" font-weight="400" letter-spacing="2" fill="#F2F5EE" opacity="0.5">Brand Identity Board</text>
  
  <!-- Section 1: Logo -->
  <text x="50" y="130" font-family="Space Grotesk" font-size="12" font-weight="600" letter-spacing="2" fill="#F2F5EE" opacity="0.4">01 · LOGO</text>
  
  <!-- Main logo -->
  <rect x="50" y="150" width="520" height="280" rx="16" fill="#F2F5EE"/>
  <g transform="translate(310, 260)" fill="#0F2A2E">
    <rect x="-40" y="-80" width="16" height="16"/>
    <rect x="-24" y="-80" width="16" height="16"/>
    <rect x="-8" y="-80" width="16" height="16"/>
    <rect x="8" y="-80" width="16" height="16"/>
    <rect x="24" y="-80" width="16" height="16"/>
    <rect x="40" y="-80" width="16" height="16"/>
    <rect x="-56" y="-64" width="16" height="16"/>
    <rect x="56" y="-64" width="16" height="16"/>
    <rect x="-72" y="-48" width="16" height="16"/>
    <rect x="72" y="-48" width="16" height="16"/>
    <rect x="-80" y="-32" width="16" height="16"/>
    <rect x="80" y="-32" width="16" height="16"/>
    <rect x="-80" y="-16" width="16" height="16"/>
    <rect x="80" y="-16" width="16" height="16"/>
    <rect x="-80" y="0" width="16" height="16"/>
    <rect x="80" y="0" width="16" height="16"/>
    <rect x="-80" y="16" width="16" height="16"/>
    <rect x="80" y="16" width="16" height="16"/>
    <rect x="-80" y="32" width="16" height="16"/>
    <rect x="80" y="32" width="16" height="16"/>
    <rect x="-80" y="48" width="16" height="16"/>
    <rect x="80" y="48" width="16" height="16"/>
  </g>
  <g transform="translate(310, 260)" fill="#1F5F66">
    <rect x="-24" y="-48" width="16" height="16"/>
    <rect x="-8" y="-48" width="16" height="16"/>
    <rect x="8" y="-48" width="16" height="16"/>
    <rect x="24" y="-48" width="16" height="16"/>
    <rect x="-40" y="-32" width="16" height="16"/>
    <rect x="40" y="-32" width="16" height="16"/>
    <rect x="-48" y="-16" width="16" height="16"/>
    <rect x="48" y="-16" width="16" height="16"/>
    <rect x="-48" y="0" width="16" height="16"/>
    <rect x="48" y="0" width="16" height="16"/>
    <rect x="-48" y="16" width="16" height="16"/>
    <rect x="48" y="16" width="16" height="16"/>
    <rect x="-48" y="32" width="16" height="16"/>
    <rect x="48" y="32" width="16" height="16"/>
  </g>
  <text x="310" y="380" text-anchor="middle" font-family="Space Grotesk" font-size="28" font-weight="500" fill="#0F2A2E">bandua</text>
  <text x="310" y="410" text-anchor="middle" font-family="Space Grotesk" font-size="12" font-weight="500" letter-spacing="6" fill="#0F2A2E" opacity="0.6">STUDIO</text>
  <text x="310" y="440" text-anchor="middle" font-family="Space Grotesk" font-size="11" font-weight="400" fill="#0F2A2E" opacity="0.4">by Marcelo Salvador</text>
  
  <!-- Icon only -->
  <rect x="620" y="150" width="240" height="280" rx="16" fill="#F2F5EE"/>
  <g transform="translate(740, 260)" fill="#0F2A2E">
    <rect x="-20" y="-40" width="8" height="8"/>
    <rect x="-12" y="-40" width="8" height="8"/>
    <rect x="-4" y="-40" width="8" height="8"/>
    <rect x="4" y="-40" width="8" height="8"/>
    <rect x="12" y="-40" width="8" height="8"/>
    <rect x="20" y="-40" width="8" height="8"/>
    <rect x="-28" y="-32" width="8" height="8"/>
    <rect x="28" y="-32" width="8" height="8"/>
    <rect x="-36" y="-24" width="8" height="8"/>
    <rect x="36" y="-24" width="8" height="8"/>
    <rect x="-40" y="-16" width="8" height="8"/>
    <rect x="40" y="-16" width="8" height="8"/>
    <rect x="-40" y="-8" width="8" height="8"/>
    <rect x="40" y="-8" width="8" height="8"/>
    <rect x="-40" y="0" width="8" height="8"/>
    <rect x="40" y="0" width="8" height="8"/>
    <rect x="-40" y="8" width="8" height="8"/>
    <rect x="40" y="8" width="8" height="8"/>
    <rect x="-40" y="16" width="8" height="8"/>
    <rect x="40" y="16" width="8" height="8"/>
    <rect x="-40" y="24" width="8" height="8"/>
    <rect x="40" y="24" width="8" height="8"/>
  </g>
  <g transform="translate(740, 260)" fill="#1F5F66">
    <rect x="-12" y="-24" width="8" height="8"/>
    <rect x="-4" y="-24" width="8" height="8"/>
    <rect x="4" y="-24" width="8" height="8"/>
    <rect x="12" y="-24" width="8" height="8"/>
    <rect x="-20" y="-16" width="8" height="8"/>
    <rect x="20" y="-16" width="8" height="8"/>
    <rect x="-24" y="-8" width="8" height="8"/>
    <rect x="24" y="-8" width="8" height="8"/>
    <rect x="-24" y="0" width="8" height="8"/>
    <rect x="24" y="0" width="8" height="8"/>
    <rect x="-24" y="8" width="8" height="8"/>
    <rect x="24" y="8" width="8" height="8"/>
    <rect x="-24" y="16" width="8" height="8"/>
    <rect x="24" y="16" width="8" height="8"/>
  </g>
  <text x="740" y="380" text-anchor="middle" font-family="Space Grotesk" font-size="10" font-weight="500" fill="#0F2A2E" opacity="0.5">Icon</text>
  
  <!-- Wordmark only -->
  <rect x="910" y="150" width="240" height="280" rx="16" fill="#F2F5EE"/>
  <text x="1030" y="280" text-anchor="middle" font-family="Space Grotesk" font-size="32" font-weight="500" fill="#0F2A2E">bandua</text>
  <text x="1030" y="310" text-anchor="middle" font-family="Space Grotesk" font-size="10" font-weight="500" letter-spacing="4" fill="#0F2A2E" opacity="0.6">STUDIO</text>
  <text x="1030" y="340" text-anchor="middle" font-family="Space Grotesk" font-size="9" font-weight="400" fill="#0F2A2E" opacity="0.4">by Marcelo Salvador</text>
  <text x="1030" y="380" text-anchor="middle" font-family="Space Grotesk" font-size="10" font-weight="500" fill="#0F2A2E" opacity="0.5">Wordmark</text>
  
  <!-- Section 2: Colors -->
  <text x="50" y="480" font-family="Space Grotesk" font-size="12" font-weight="600" letter-spacing="2" fill="#F2F5EE" opacity="0.4">02 · COLORS</text>
  
  <!-- Color swatches -->
  <rect x="50" y="500" width="200" height="120" rx="12" fill="#F2F5EE" stroke="#F2F5EE" stroke-width="1.5" stroke-opacity="0.45"/>
  <text x="70" y="530" font-family="Space Grotesk" font-size="10" font-weight="600" letter-spacing="1" fill="#0F2A2E" opacity="0.5">MIST</text>
  <text x="70" y="555" font-family="Space Grotesk" font-size="14" font-weight="500" fill="#0F2A2E">#F2F5EE</text>
  <text x="70" y="580" font-family="Space Grotesk" font-size="10" font-weight="400" fill="#0F2A2E" opacity="0.5">Background / Light</text>
  
  <rect x="270" y="500" width="200" height="120" rx="12" fill="#1F5F66" stroke="#F2F5EE" stroke-width="1.5" stroke-opacity="0.45"/>
  <text x="290" y="530" font-family="Space Grotesk" font-size="10" font-weight="600" letter-spacing="1" fill="#F2F5EE" opacity="0.5">TEAL</text>
  <text x="290" y="555" font-family="Space Grotesk" font-size="14" font-weight="500" fill="#F2F5EE">#1F5F66</text>
  <text x="290" y="580" font-family="Space Grotesk" font-size="10" font-weight="400" fill="#F2F5EE" opacity="0.5">Primary / Brand</text>
  
  <rect x="490" y="500" width="200" height="120" rx="12" fill="#5B7B3A" stroke="#F2F5EE" stroke-width="1.5" stroke-opacity="0.45"/>
  <text x="510" y="530" font-family="Space Grotesk" font-size="10" font-weight="600" letter-spacing="1" fill="#F2F5EE" opacity="0.5">MOSS</text>
  <text x="510" y="555" font-family="Space Grotesk" font-size="14" font-weight="500" fill="#F2F5EE">#5B7B3A</text>
  <text x="510" y="580" font-family="Space Grotesk" font-size="10" font-weight="400" fill="#F2F5EE" opacity="0.5">Accent / Secondary</text>
  
  <rect x="710" y="500" width="200" height="120" rx="12" fill="#0F2A2E" stroke="#F2F5EE" stroke-width="1.5" stroke-opacity="0.45"/>
  <text x="730" y="530" font-family="Space Grotesk" font-size="10" font-weight="600" letter-spacing="1" fill="#F2F5EE" opacity="0.5">DEEP</text>
  <text x="730" y="555" font-family="Space Grotesk" font-size="14" font-weight="500" fill="#F2F5EE">#0F2A2E</text>
  <text x="730" y="580" font-family="Space Grotesk" font-size="10" font-weight="400" fill="#F2F5EE" opacity="0.5">Text / Dark</text>
  
  <!-- Section 3: Typography -->
  <text x="50" y="670" font-family="Space Grotesk" font-size="12" font-weight="600" letter-spacing="2" fill="#F2F5EE" opacity="0.4">03 · TYPOGRAPHY</text>
  
  <!-- Typography samples -->
  <rect x="50" y="690" width="520" height="200" rx="16" fill="#F2F5EE"/>
  <text x="70" y="720" font-family="Space Grotesk" font-size="10" font-weight="600" letter-spacing="1" fill="#0F2A2E" opacity="0.5">PRIMARY · SPACE GROTESK</text>
  <text x="70" y="760" font-family="Space Grotesk" font-size="36" font-weight="500" fill="#0F2A2E">bandua studio</text>
  <text x="70" y="800" font-family="Space Grotesk" font-size="14" font-weight="400" fill="#0F2A2E">ABCDEFGHIJKLMNOPQRSTUVWXYZ</text>
  <text x="70" y="825" font-family="Space Grotesk" font-size="14" font-weight="400" fill="#0F2A2E">abcdefghijklmnopqrstuvwxyz</text>
  <text x="70" y="850" font-family="Space Grotesk" font-size="14" font-weight="400" fill="#0F2A2E">0123456789 · !@#$%&amp;*</text>
  
  <rect x="620" y="690" width="520" height="200" rx="16" fill="#F2F5EE"/>
  <text x="640" y="720" font-family="Space Grotesk" font-size="10" font-weight="600" letter-spacing="1" fill="#0F2A2E" opacity="0.5">MONOSPACE · JETBRAINS MONO</text>
  <text x="640" y="760" font-family="JetBrains Mono" font-size="24" font-weight="400" fill="#0F2A2E">const bandua = await</text>
  <text x="640" y="790" font-family="JetBrains Mono" font-size="14" font-weight="400" fill="#0F2A2E">ABCDEFGHIJKLMNOPQRSTUVWXYZ</text>
  <text x="640" y="815" font-family="JetBrains Mono" font-size="14" font-weight="400" fill="#0F2A2E">abcdefghijklmnopqrstuvwxyz</text>
  <text x="640" y="840" font-family="JetBrains Mono" font-size="14" font-weight="400" fill="#0F2A2E">0123456789 · !@#$%&amp;*</text>
  
  <!-- Section 4: Tagline -->
  <text x="50" y="940" font-family="Space Grotesk" font-size="12" font-weight="600" letter-spacing="2" fill="#F2F5EE" opacity="0.4">04 · TAGLINE</text>
  
  <rect x="50" y="960" width="1090" height="80" rx="16" fill="#F2F5EE"/>
  <text x="600" y="1000" text-anchor="middle" font-family="Space Grotesk" font-size="20" font-weight="500" fill="#0F2A2E">Things built to last.</text>
  <text x="600" y="1025" text-anchor="middle" font-family="Space Grotesk" font-size="11" font-weight="400" fill="#0F2A2E" opacity="0.5">Simple things, made with care. Flowing wherever you need them.</text>
  
  <!-- Section 5: Logo variations -->
  <text x="50" y="1090" font-family="Space Grotesk" font-size="12" font-weight="600" letter-spacing="2" fill="#F2F5EE" opacity="0.4">05 · LOGO VARIATIONS</text>
  
  <!-- Variation 1: Light background -->
  <rect x="50" y="1110" width="250" height="150" rx="12" fill="#F2F5EE"/>
  <g transform="translate(175, 1160)" fill="#0F2A2E">
    <rect x="-16" y="-32" width="6" height="6"/>
    <rect x="-10" y="-32" width="6" height="6"/>
    <rect x="-4" y="-32" width="6" height="6"/>
    <rect x="2" y="-32" width="6" height="6"/>
    <rect x="8" y="-32" width="6" height="6"/>
    <rect x="14" y="-32" width="6" height="6"/>
    <rect x="-22" y="-26" width="6" height="6"/>
    <rect x="22" y="-26" width="6" height="6"/>
    <rect x="-28" y="-20" width="6" height="6"/>
    <rect x="28" y="-20" width="6" height="6"/>
    <rect x="-32" y="-14" width="6" height="6"/>
    <rect x="32" y="-14" width="6" height="6"/>
    <rect x="-32" y="-8" width="6" height="6"/>
    <rect x="32" y="-8" width="6" height="6"/>
    <rect x="-32" y="-2" width="6" height="6"/>
    <rect x="32" y="-2" width="6" height="6"/>
    <rect x="-32" y="4" width="6" height="6"/>
    <rect x="32" y="4" width="6" height="6"/>
    <rect x="-32" y="10" width="6" height="6"/>
    <rect x="32" y="10" width="6" height="6"/>
    <rect x="-32" y="16" width="6" height="6"/>
    <rect x="32" y="16" width="6" height="6"/>
  </g>
  <g transform="translate(175, 1160)" fill="#1F5F66">
    <rect x="-10" y="-20" width="6" height="6"/>
    <rect x="-4" y="-20" width="6" height="6"/>
    <rect x="2" y="-20" width="6" height="6"/>
    <rect x="8" y="-20" width="6" height="6"/>
    <rect x="-16" y="-14" width="6" height="6"/>
    <rect x="16" y="-14" width="6" height="6"/>
    <rect x="-20" y="-8" width="6" height="6"/>
    <rect x="20" y="-8" width="6" height="6"/>
    <rect x="-20" y="-2" width="6" height="6"/>
    <rect x="20" y="-2" width="6" height="6"/>
    <rect x="-20" y="4" width="6" height="6"/>
    <rect x="20" y="4" width="6" height="6"/>
    <rect x="-20" y="10" width="6" height="6"/>
    <rect x="20" y="10" width="6" height="6"/>
  </g>
  <text x="175" y="1230" text-anchor="middle" font-family="Space Grotesk" font-size="12" font-weight="500" fill="#0F2A2E">bandua</text>
  
  <!-- Variation 2: Dark background -->
  <rect x="320" y="1110" width="250" height="150" rx="12" fill="#0F2A2E" stroke="#F2F5EE" stroke-width="1.5" stroke-opacity="0.28"/>
  <g transform="translate(445, 1160)" fill="#F2F5EE">
    <rect x="-16" y="-32" width="6" height="6"/>
    <rect x="-10" y="-32" width="6" height="6"/>
    <rect x="-4" y="-32" width="6" height="6"/>
    <rect x="2" y="-32" width="6" height="6"/>
    <rect x="8" y="-32" width="6" height="6"/>
    <rect x="14" y="-32" width="6" height="6"/>
    <rect x="-22" y="-26" width="6" height="6"/>
    <rect x="22" y="-26" width="6" height="6"/>
    <rect x="-28" y="-20" width="6" height="6"/>
    <rect x="28" y="-20" width="6" height="6"/>
    <rect x="-32" y="-14" width="6" height="6"/>
    <rect x="32" y="-14" width="6" height="6"/>
    <rect x="-32" y="-8" width="6" height="6"/>
    <rect x="32" y="-8" width="6" height="6"/>
    <rect x="-32" y="-2" width="6" height="6"/>
    <rect x="32" y="-2" width="6" height="6"/>
    <rect x="-32" y="4" width="6" height="6"/>
    <rect x="32" y="4" width="6" height="6"/>
    <rect x="-32" y="10" width="6" height="6"/>
    <rect x="32" y="10" width="6" height="6"/>
    <rect x="-32" y="16" width="6" height="6"/>
    <rect x="32" y="16" width="6" height="6"/>
  </g>
  <g transform="translate(445, 1160)" fill="#1F5F66">
    <rect x="-10" y="-20" width="6" height="6"/>
    <rect x="-4" y="-20" width="6" height="6"/>
    <rect x="2" y="-20" width="6" height="6"/>
    <rect x="8" y="-20" width="6" height="6"/>
    <rect x="-16" y="-14" width="6" height="6"/>
    <rect x="16" y="-14" width="6" height="6"/>
    <rect x="-20" y="-8" width="6" height="6"/>
    <rect x="20" y="-8" width="6" height="6"/>
    <rect x="-20" y="-2" width="6" height="6"/>
    <rect x="20" y="-2" width="6" height="6"/>
    <rect x="-20" y="4" width="6" height="6"/>
    <rect x="20" y="4" width="6" height="6"/>
    <rect x="-20" y="10" width="6" height="6"/>
    <rect x="20" y="10" width="6" height="6"/>
  </g>
  <text x="445" y="1230" text-anchor="middle" font-family="Space Grotesk" font-size="12" font-weight="500" fill="#F2F5EE">bandua</text>
  
  <!-- Variation 3: Teal background -->
  <rect x="590" y="1110" width="250" height="150" rx="12" fill="#1F5F66"/>
  <g transform="translate(715, 1160)" fill="#F2F5EE">
    <rect x="-16" y="-32" width="6" height="6"/>
    <rect x="-10" y="-32" width="6" height="6"/>
    <rect x="-4" y="-32" width="6" height="6"/>
    <rect x="2" y="-32" width="6" height="6"/>
    <rect x="8" y="-32" width="6" height="6"/>
    <rect x="14" y="-32" width="6" height="6"/>
    <rect x="-22" y="-26" width="6" height="6"/>
    <rect x="22" y="-26" width="6" height="6"/>
    <rect x="-28" y="-20" width="6" height="6"/>
    <rect x="28" y="-20" width="6" height="6"/>
    <rect x="-32" y="-14" width="6" height="6"/>
    <rect x="32" y="-14" width="6" height="6"/>
    <rect x="-32" y="-8" width="6" height="6"/>
    <rect x="32" y="-8" width="6" height="6"/>
    <rect x="-32" y="-2" width="6" height="6"/>
    <rect x="32" y="-2" width="6" height="6"/>
    <rect x="-32" y="4" width="6" height="6"/>
    <rect x="32" y="4" width="6" height="6"/>
    <rect x="-32" y="10" width="6" height="6"/>
    <rect x="32" y="10" width="6" height="6"/>
    <rect x="-32" y="16" width="6" height="6"/>
    <rect x="32" y="16" width="6" height="6"/>
  </g>
  <g transform="translate(715, 1160)" fill="#0F2A2E">
    <rect x="-10" y="-20" width="6" height="6"/>
    <rect x="-4" y="-20" width="6" height="6"/>
    <rect x="2" y="-20" width="6" height="6"/>
    <rect x="8" y="-20" width="6" height="6"/>
    <rect x="-16" y="-14" width="6" height="6"/>
    <rect x="16" y="-14" width="6" height="6"/>
    <rect x="-20" y="-8" width="6" height="6"/>
    <rect x="20" y="-8" width="6" height="6"/>
    <rect x="-20" y="-2" width="6" height="6"/>
    <rect x="20" y="-2" width="6" height="6"/>
    <rect x="-20" y="4" width="6" height="6"/>
    <rect x="20" y="4" width="6" height="6"/>
    <rect x="-20" y="10" width="6" height="6"/>
    <rect x="20" y="10" width="6" height="6"/>
  </g>
  <text x="715" y="1230" text-anchor="middle" font-family="Space Grotesk" font-size="12" font-weight="500" fill="#F2F5EE">bandua</text>
  
  <!-- Variation 4: Monochrome -->
  <rect x="860" y="1110" width="250" height="150" rx="12" fill="#F2F5EE"/>
  <g transform="translate(985, 1160)" fill="#0F2A2E">
    <rect x="-16" y="-32" width="6" height="6"/>
    <rect x="-10" y="-32" width="6" height="6"/>
    <rect x="-4" y="-32" width="6" height="6"/>
    <rect x="2" y="-32" width="6" height="6"/>
    <rect x="8" y="-32" width="6" height="6"/>
    <rect x="14" y="-32" width="6" height="6"/>
    <rect x="-22" y="-26" width="6" height="6"/>
    <rect x="22" y="-26" width="6" height="6"/>
    <rect x="-28" y="-20" width="6" height="6"/>
    <rect x="28" y="-20" width="6" height="6"/>
    <rect x="-32" y="-14" width="6" height="6"/>
    <rect x="32" y="-14" width="6" height="6"/>
    <rect x="-32" y="-8" width="6" height="6"/>
    <rect x="32" y="-8" width="6" height="6"/>
    <rect x="-32" y="-2" width="6" height="6"/>
    <rect x="32" y="-2" width="6" height="6"/>
    <rect x="-32" y="4" width="6" height="6"/>
    <rect x="32" y="4" width="6" height="6"/>
    <rect x="-32" y="10" width="6" height="6"/>
    <rect x="32" y="10" width="6" height="6"/>
    <rect x="-32" y="16" width="6" height="6"/>
    <rect x="32" y="16" width="6" height="6"/>
  </g>
  <g transform="translate(985, 1160)" fill="#0F2A2E">
    <rect x="-10" y="-20" width="6" height="6"/>
    <rect x="-4" y="-20" width="6" height="6"/>
    <rect x="2" y="-20" width="6" height="6"/>
    <rect x="8" y="-20" width="6" height="6"/>
    <rect x="-16" y="-14" width="6" height="6"/>
    <rect x="16" y="-14" width="6" height="6"/>
    <rect x="-20" y="-8" width="6" height="6"/>
    <rect x="20" y="-8" width="6" height="6"/>
    <rect x="-20" y="-2" width="6" height="6"/>
    <rect x="20" y="-2" width="6" height="6"/>
    <rect x="-20" y="4" width="6" height="6"/>
    <rect x="20" y="4" width="6" height="6"/>
    <rect x="-20" y="10" width="6" height="6"/>
    <rect x="20" y="10" width="6" height="6"/>
  </g>
  <text x="985" y="1230" text-anchor="middle" font-family="Space Grotesk" font-size="12" font-weight="500" fill="#0F2A2E">bandua</text>
  
  <!-- Section 6: Usage -->
  <text x="50" y="1310" font-family="Space Grotesk" font-size="12" font-weight="600" letter-spacing="2" fill="#F2F5EE" opacity="0.4">06 · USAGE</text>
  
  <!-- Usage examples -->
  <rect x="50" y="1330" width="350" height="200" rx="12" fill="#F2F5EE"/>
  <text x="70" y="1360" font-family="Space Grotesk" font-size="10" font-weight="600" letter-spacing="1" fill="#0F2A2E" opacity="0.5">AVATAR</text>
  <circle cx="225" cy="1430" r="50" fill="#1F5F66"/>
  <g transform="translate(225, 1430)" fill="#F2F5EE">
    <rect x="-16" y="-32" width="6" height="6"/>
    <rect x="-10" y="-32" width="6" height="6"/>
    <rect x="-4" y="-32" width="6" height="6"/>
    <rect x="2" y="-32" width="6" height="6"/>
    <rect x="8" y="-32" width="6" height="6"/>
    <rect x="14" y="-32" width="6" height="6"/>
    <rect x="-22" y="-26" width="6" height="6"/>
    <rect x="22" y="-26" width="6" height="6"/>
    <rect x="-28" y="-20" width="6" height="6"/>
    <rect x="28" y="-20" width="6" height="6"/>
    <rect x="-32" y="-14" width="6" height="6"/>
    <rect x="32" y="-14" width="6" height="6"/>
    <rect x="-32" y="-8" width="6" height="6"/>
    <rect x="32" y="-8" width="6" height="6"/>
    <rect x="-32" y="-2" width="6" height="6"/>
    <rect x="32" y="-2" width="6" height="6"/>
    <rect x="-32" y="4" width="6" height="6"/>
    <rect x="32" y="4" width="6" height="6"/>
    <rect x="-32" y="10" width="6" height="6"/>
    <rect x="32" y="10" width="6" height="6"/>
    <rect x="-32" y="16" width="6" height="6"/>
    <rect x="32" y="16" width="6" height="6"/>
  </g>
  <g transform="translate(225, 1430)" fill="#0F2A2E">
    <rect x="-10" y="-20" width="6" height="6"/>
    <rect x="-4" y="-20" width="6" height="6"/>
    <rect x="2" y="-20" width="6" height="6"/>
    <rect x="8" y="-20" width="6" height="6"/>
    <rect x="-16" y="-14" width="6" height="6"/>
    <rect x="16" y="-14" width="6" height="6"/>
    <rect x="-20" y="-8" width="6" height="6"/>
    <rect x="20" y="-8" width="6" height="6"/>
    <rect x="-20" y="-2" width="6" height="6"/>
    <rect x="20" y="-2" width="6" height="6"/>
    <rect x="-20" y="4" width="6" height="6"/>
    <rect x="20" y="4" width="6" height="6"/>
    <rect x="-20" y="10" width="6" height="6"/>
    <rect x="20" y="10" width="6" height="6"/>
  </g>
  
  <rect x="420" y="1330" width="350" height="200" rx="12" fill="#0F2A2E" stroke="#F2F5EE" stroke-width="1.5" stroke-opacity="0.28"/>
  <text x="440" y="1360" font-family="Space Grotesk" font-size="10" font-weight="600" letter-spacing="1" fill="#F2F5EE" opacity="0.5">BANNER</text>
  <g transform="translate(595, 1400)" fill="#F2F5EE">
    <rect x="-20" y="-40" width="8" height="8"/>
    <rect x="-12" y="-40" width="8" height="8"/>
    <rect x="-4" y="-40" width="8" height="8"/>
    <rect x="4" y="-40" width="8" height="8"/>
    <rect x="12" y="-40" width="8" height="8"/>
    <rect x="20" y="-40" width="8" height="8"/>
    <rect x="-28" y="-32" width="8" height="8"/>
    <rect x="28" y="-32" width="8" height="8"/>
    <rect x="-36" y="-24" width="8" height="8"/>
    <rect x="36" y="-24" width="8" height="8"/>
    <rect x="-40" y="-16" width="8" height="8"/>
    <rect x="40" y="-16" width="8" height="8"/>
    <rect x="-40" y="-8" width="8" height="8"/>
    <rect x="40" y="-8" width="8" height="8"/>
    <rect x="-40" y="0" width="8" height="8"/>
    <rect x="40" y="0" width="8" height="8"/>
    <rect x="-40" y="8" width="8" height="8"/>
    <rect x="40" y="8" width="8" height="8"/>
    <rect x="-40" y="16" width="8" height="8"/>
    <rect x="40" y="16" width="8" height="8"/>
    <rect x="-40" y="24" width="8" height="8"/>
    <rect x="40" y="24" width="8" height="8"/>
  </g>
  <g transform="translate(595, 1400)" fill="#1F5F66">
    <rect x="-12" y="-24" width="8" height="8"/>
    <rect x="-4" y="-24" width="8" height="8"/>
    <rect x="4" y="-24" width="8" height="8"/>
    <rect x="12" y="-24" width="8" height="8"/>
    <rect x="-20" y="-16" width="8" height="8"/>
    <rect x="20" y="-16" width="8" height="8"/>
    <rect x="-24" y="-8" width="8" height="8"/>
    <rect x="24" y="-8" width="8" height="8"/>
    <rect x="-24" y="0" width="8" height="8"/>
    <rect x="24" y="0" width="8" height="8"/>
    <rect x="-24" y="8" width="8" height="8"/>
    <rect x="24" y="8" width="8" height="8"/>
    <rect x="-24" y="16" width="8" height="8"/>
    <rect x="24" y="16" width="8" height="8"/>
  </g>
  <text x="595" y="1480" text-anchor="middle" font-family="Space Grotesk" font-size="16" font-weight="500" fill="#F2F5EE">bandua studio</text>
  
  <rect x="790" y="1330" width="350" height="200" rx="12" fill="#F2F5EE"/>
  <text x="810" y="1360" font-family="Space Grotesk" font-size="10" font-weight="600" letter-spacing="1" fill="#0F2A2E" opacity="0.5">README HEADER</text>
  <g transform="translate(965, 1400)" fill="#0F2A2E">
    <rect x="-20" y="-40" width="8" height="8"/>
    <rect x="-12" y="-40" width="8" height="8"/>
    <rect x="-4" y="-40" width="8" height="8"/>
    <rect x="4" y="-40" width="8" height="8"/>
    <rect x="12" y="-40" width="8" height="8"/>
    <rect x="20" y="-40" width="8" height="8"/>
    <rect x="-28" y="-32" width="8" height="8"/>
    <rect x="28" y="-32" width="8" height="8"/>
    <rect x="-36" y="-24" width="8" height="8"/>
    <rect x="36" y="-24" width="8" height="8"/>
    <rect x="-40" y="-16" width="8" height="8"/>
    <rect x="40" y="-16" width="8" height="8"/>
    <rect x="-40" y="-8" width="8" height="8"/>
    <rect x="40" y="-8" width="8" height="8"/>
    <rect x="-40" y="0" width="8" height="8"/>
    <rect x="40" y="0" width="8" height="8"/>
    <rect x="-40" y="8" width="8" height="8"/>
    <rect x="40" y="8" width="8" height="8"/>
    <rect x="-40" y="16" width="8" height="8"/>
    <rect x="40" y="16" width="8" height="8"/>
    <rect x="-40" y="24" width="8" height="8"/>
    <rect x="40" y="24" width="8" height="8"/>
  </g>
  <g transform="translate(965, 1400)" fill="#1F5F66">
    <rect x="-12" y="-24" width="8" height="8"/>
    <rect x="-4" y="-24" width="8" height="8"/>
    <rect x="4" y="-24" width="8" height="8"/>
    <rect x="12" y="-24" width="8" height="8"/>
    <rect x="-20" y="-16" width="8" height="8"/>
    <rect x="20" y="-16" width="8" height="8"/>
    <rect x="-24" y="-8" width="8" height="8"/>
    <rect x="24" y="-8" width="8" height="8"/>
    <rect x="-24" y="0" width="8" height="8"/>
    <rect x="24" y="0" width="8" height="8"/>
    <rect x="-24" y="8" width="8" height="8"/>
    <rect x="24" y="8" width="8" height="8"/>
    <rect x="-24" y="16" width="8" height="8"/>
    <rect x="24" y="16" width="8" height="8"/>
  </g>
  <text x="965" y="1480" text-anchor="middle" font-family="Space Grotesk" font-size="14" font-weight="500" fill="#0F2A2E">bandua studio</text>
  <text x="965" y="1505" text-anchor="middle" font-family="Space Grotesk" font-size="10" font-weight="400" fill="#0F2A2E" opacity="0.5">Things built to last.</text>
</svg>